<svg version="1.1" xmlns="http://www.w3.org/2000/svg" viewBox="0 0 2718.285459004562 1618.8602597600998" width="2718.285459004562" height="1618.8602597600998">
  <!-- svg-source:excalidraw -->
  
  <defs>
    <style>
      @font-face {
        font-family: "Virgil";
        src: url("https://excalidraw.com/Virgil.woff2");
      }
      @font-face {
        font-family: "Cascadia";
        src: url("https://excalidraw.com/Cascadia.woff2");
      }
    </style>
  </defs>
  <rect x="0" y="0" width="2718.285459004562" height="1618.8602597600998" fill="#ffffff"></rect><g stroke-linecap="round" transform="translate(1781.809345722767 310.6148093635626) rotate(0 245.83333333333348 369.30548858642595)"><path d="M-1.02 0.75 L492.22 0.99 L491.78 740.4 L-1.32 739.72" stroke="none" stroke-width="0" fill="#fff"></path><path d="M-0.19 -0.05 C153.9 -0.04, 306.72 0.61, 490.89 -0.45 M0.18 -0.31 C115.07 -0.9, 230.67 -1.05, 491.5 -0.02 M490.92 0.7 C492.77 274.21, 492.81 547.69, 492.41 739.05 M491.43 -0.38 C491.17 228.37, 491.23 456.49, 491.85 738.36 M491.93 739.35 C315.21 737.56, 139.66 738.2, -0.73 738.21 M491.99 738.54 C315.39 737.29, 139.51 737.54, -0.21 738.2 M-0.36 738.99 C0.45 539.42, 0.19 341.72, 0.33 0.6 M0.39 738.36 C-2.58 491.94, -2.5 245.41, -0.29 -0.06" stroke="#000000" stroke-width="1" fill="none"></path></g><g transform="translate(1855.420389017038 256.89254475581515) rotate(0 72 22.5)"><text x="0" y="32" font-family="Virgil, Segoe UI Emoji" font-size="36px" fill="#000000" text-anchor="start" style="white-space: pre;" direction="ltr">Backend</text></g><g stroke-linecap="round" transform="translate(1805.420389017038 318.94814269689584) rotate(0 225 186.1111068725586)"><path d="M-0.18 1.55 L448.59 -0.03 L450.04 370.52 L-0.55 370.36" stroke="none" stroke-width="0" fill="#fff"></path><path d="M0.4 0.96 C116.46 -2.02, 233.27 -2.65, 450.34 0.77 M0.42 0.2 C175.29 -1.78, 351.06 -1.44, 449.94 0.08 M449.19 -0.92 C448.33 104.08, 450.16 211.11, 449.84 372.33 M450.33 -0.38 C449.88 137.04, 450.25 274.77, 450.46 372.82 M449.08 372.1 C326.87 374.8, 204.14 374.61, -0.2 372.83 M450.33 372.69 C350.2 370.11, 250.71 370.55, -0.08 372.69 M0.03 372.25 C1.31 251.67, 0.71 132.65, -0.29 -0.26 M-0.38 372.05 C0.07 259.97, 0.45 147.95, -0.46 -0.42" stroke="#000000" stroke-width="1" fill="none"></path></g><g stroke-linecap="round" transform="translate(199.9521587846791 289.28136243702187) rotate(0 125.92590501573352 83.05553521050348)"><path d="M120.55 0.35 C134.91 -1.27, 152.26 1.78, 166.5 4.9 C180.73 8.02, 194.23 12.92, 205.96 19.08 C217.68 25.24, 229.48 33.07, 236.84 41.87 C244.19 50.67, 247.98 61.77, 250.09 71.88 C252.21 81.99, 252.99 92.96, 249.53 102.53 C246.06 112.1, 238.03 121.22, 229.29 129.31 C220.56 137.4, 209.47 145.41, 197.13 151.09 C184.78 156.77, 169.93 160.99, 155.24 163.39 C140.55 165.8, 123.97 166.82, 108.98 165.51 C94 164.2, 78.61 160.27, 65.33 155.53 C52.04 150.78, 39.1 144.66, 29.26 137.03 C19.41 129.41, 10.98 119.28, 6.23 109.76 C1.49 100.24, -0.07 89.8, 0.79 79.93 C1.65 70.07, 5.26 59.95, 11.37 50.56 C17.48 41.17, 26.84 30.99, 37.45 23.6 C48.06 16.22, 60.11 10, 75 6.23 C89.89 2.45, 117.19 1.64, 126.78 0.96 C136.37 0.28, 132.45 0.77, 132.54 2.13 M146.88 2.21 C161.12 2.55, 176.37 5.7, 189.33 10.78 C202.3 15.85, 215.09 24.85, 224.66 32.67 C234.23 40.49, 242.18 48.41, 246.75 57.69 C251.32 66.97, 252.99 78.27, 252.07 88.36 C251.16 98.45, 247.56 109.06, 241.25 118.22 C234.94 127.39, 225.4 136.6, 214.24 143.33 C203.07 150.06, 188.56 154.79, 174.26 158.61 C159.96 162.43, 143.78 166.04, 128.44 166.23 C113.1 166.42, 96.51 162.94, 82.21 159.76 C67.9 156.58, 53.71 153.35, 42.61 147.14 C31.51 140.94, 22.63 131.75, 15.6 122.53 C8.57 113.32, 2.16 101.89, 0.43 91.83 C-1.29 81.77, 1.32 71.77, 5.25 62.16 C9.18 52.56, 15.11 42.48, 23.99 34.2 C32.88 25.92, 46.01 18.06, 58.55 12.5 C71.1 6.93, 84.42 2.79, 99.26 0.84 C114.11 -1.12, 140.12 0.65, 147.64 0.75 C155.15 0.86, 145.05 0.07, 144.33 1.46" stroke="#000000" stroke-width="1" fill="none"></path></g><g transform="translate(254.22198988199386 347.4281064536387) rotate(0 78 25)"><text x="0" y="18" font-family="Virgil, Segoe UI Emoji" font-size="20px" fill="#000000" text-anchor="start" style="white-space: pre;" direction="ltr">Smart Contract</text><text x="0" y="43" font-family="Virgil, Segoe UI Emoji" font-size="20px" fill="#000000" text-anchor="start" style="white-space: pre;" direction="ltr"></text></g><g stroke-linecap="round" transform="translate(675.7560397486853 27.708652490616203) rotate(0 131.94444444444446 91.20369805230035)"><path d="M134.87 -0.01 C150.07 -1.32, 167 2.12, 181.5 6.35 C196.01 10.57, 210.3 17.63, 221.9 25.33 C233.49 33.04, 244.26 42.84, 251.07 52.59 C257.88 62.34, 261.73 72.92, 262.76 83.84 C263.79 94.77, 261.91 107.59, 257.24 118.15 C252.57 128.71, 244.51 138.78, 234.75 147.22 C225 155.66, 212.08 163.01, 198.69 168.8 C185.3 174.59, 169.89 180.06, 154.41 181.96 C138.94 183.86, 121.6 182.45, 105.85 180.22 C90.1 177.98, 73.41 174.56, 59.91 168.53 C46.41 162.5, 34.06 153.03, 24.86 144.04 C15.67 135.04, 8.89 125.07, 4.74 114.54 C0.6 104.02, -1.6 91.79, -0.01 80.88 C1.57 69.98, 6.65 58.82, 14.27 49.1 C21.9 39.39, 33.71 29.73, 45.74 22.6 C57.78 15.46, 70.92 9.88, 86.48 6.28 C102.04 2.68, 129.4 1.59, 139.09 1 C148.79 0.4, 144.61 1.26, 144.66 2.7 M181.75 7.79 C196.56 10.33, 210.89 16.72, 222.26 24.07 C233.64 31.41, 243.38 42, 250.02 51.88 C256.65 61.75, 260.54 72.52, 262.09 83.32 C263.63 94.12, 263.72 106.08, 259.28 116.65 C254.85 127.22, 245.42 137.75, 235.49 146.72 C225.56 155.7, 212.99 164.87, 199.71 170.49 C186.43 176.1, 171.43 178.53, 155.8 180.41 C140.17 182.29, 121.42 183.88, 105.93 181.75 C90.44 179.63, 76.15 173.78, 62.88 167.66 C49.6 161.55, 36.1 153.79, 26.28 145.06 C16.45 136.33, 8.26 125.86, 3.92 115.27 C-0.42 104.67, -1.45 92.35, 0.23 81.5 C1.91 70.64, 6.97 59.88, 14 50.14 C21.03 40.41, 30.51 30.62, 42.42 23.08 C54.33 15.55, 70.45 8.54, 85.48 4.94 C100.52 1.34, 116.93 1.28, 132.62 1.48 C148.3 1.69, 171.78 5.28, 179.58 6.18 C187.38 7.08, 179.88 5.56, 179.4 6.87" stroke="#000000" stroke-width="1" fill="none"></path></g><g transform="translate(717.2904926411703 73.7351252786246) rotate(0 87 25)"><text x="0" y="18" font-family="Virgil, Segoe UI Emoji" font-size="20px" fill="#000000" text-anchor="start" style="white-space: pre;" direction="ltr">Eth blockchain /</text><text x="0" y="43" font-family="Virgil, Segoe UI Emoji" font-size="20px" fill="#000000" text-anchor="start" style="white-space: pre;" direction="ltr">Infura (provider?)</text></g><g stroke-linecap="round" transform="translate(248.66619357665502 753.2972863155246) rotate(0 105.35716465541293 86.90473284040183)"><path d="M106.71 -0.21 C119.51 -1.36, 134.88 3.1, 147.16 7.46 C159.44 11.83, 170.95 18.23, 180.38 25.98 C189.82 33.74, 198.67 43.69, 203.76 53.98 C208.85 64.27, 211.05 76.55, 210.95 87.74 C210.85 98.93, 208.3 110.82, 203.15 121.13 C198.01 131.44, 189.86 141.75, 180.07 149.61 C170.29 157.46, 157.08 164.25, 144.43 168.26 C131.79 172.27, 117.52 173.78, 104.21 173.69 C90.91 173.6, 77.01 171.87, 64.61 167.71 C52.22 163.54, 39.45 156.86, 29.84 148.71 C20.23 140.56, 11.95 129.16, 6.95 118.8 C1.94 108.44, -0.59 97.42, -0.2 86.57 C0.18 75.72, 3.93 63.89, 9.27 53.71 C14.61 43.54, 22.29 33.24, 31.84 25.5 C41.38 17.75, 53.48 11.32, 66.53 7.24 C79.57 3.15, 102.13 2.01, 110.11 0.99 C118.1 -0.03, 114.54 -0.26, 114.43 1.12 M55.17 8.65 C65.53 2.59, 80.97 1.03, 94.35 0.33 C107.72 -0.37, 122.27 1.24, 135.43 4.44 C148.59 7.63, 162.92 12.65, 173.29 19.51 C183.66 26.37, 191.4 35.56, 197.64 45.61 C203.89 55.66, 209.38 68.76, 210.76 79.81 C212.15 90.86, 209.8 101.65, 205.96 111.9 C202.12 122.15, 196.14 132.63, 187.73 141.31 C179.33 149.99, 167.79 158.49, 155.54 163.98 C143.29 169.46, 127.62 173.32, 114.23 174.19 C100.83 175.07, 87.67 172.64, 75.16 169.21 C62.66 165.77, 49.63 160.41, 39.21 153.59 C28.78 146.76, 19.3 138.14, 12.62 128.25 C5.94 118.35, 0.54 105.23, -0.87 94.22 C-2.28 83.21, -0.07 72.59, 4.16 62.18 C8.39 51.77, 15.82 40.47, 24.48 31.78 C33.15 23.09, 50.49 13.49, 56.15 10.02 C61.81 6.55, 57.62 9.81, 58.45 10.96" stroke="#000000" stroke-width="1" fill="none"></path></g><g transform="translate(303.42815646728 794.2972863155246) rotate(0 49 25)"><text x="0" y="18" font-family="Virgil, Segoe UI Emoji" font-size="20px" fill="#000000" text-anchor="start" style="white-space: pre;" direction="ltr">IPFS file </text><text x="0" y="43" font-family="Virgil, Segoe UI Emoji" font-size="20px" fill="#000000" text-anchor="start" style="white-space: pre;" direction="ltr">system</text></g><g stroke-linecap="round" transform="translate(832.594786803497 314.28514959971847) rotate(0 384.47322063666775 364.44659177796456)"><path d="M0.27 -0.76 C243 -1.34, 487.25 -2.4, 769.43 0.54 M0.01 -0.1 C287.96 1.09, 576.38 0.96, 769.04 -0.05 M769.71 -0.41 C770.25 171.71, 769.65 345.16, 769.12 729.08 M768.83 -0.15 C766.73 286.48, 767.11 572.68, 768.76 728.94 M769.61 729.32 C521.95 726.53, 275.01 726.78, -0.2 728.25 M768.73 729.23 C472.25 729.4, 175.25 729.62, -0.32 728.96 M-0.28 728.33 C-0.4 487.47, -0.45 246.18, 0.08 0.04 M0.33 728.81 C-2.05 532.79, -2 336.47, 0.14 0.07" stroke="#000000" stroke-width="1" fill="none"></path></g><g transform="translate(1027.3449671451585 259.37214225147716) rotate(0 137.4504069699559 18.856012508513807)"><text x="0" y="26.712025017027614" font-family="Virgil, Segoe UI Emoji" font-size="29.933151036428985px" fill="#000000" text-anchor="start" style="white-space: pre;" direction="ltr">Marketplace Client</text></g><g stroke-linecap="round" transform="translate(756.4045140635418 345.5591838113393) rotate(0 223.21432931082586 285.1190185546875)"><path d="M190.96 3.83 C207.22 -3.77, 226.03 -0.14, 243.7 1.77 C261.37 3.67, 280.01 7.9, 296.97 15.26 C313.93 22.62, 330.55 33.49, 345.46 45.9 C360.37 58.31, 374.24 72.95, 386.42 89.72 C398.59 106.48, 409.79 126.58, 418.52 146.5 C427.25 166.42, 434.31 187.39, 438.81 209.22 C443.3 231.05, 445.16 254.86, 445.5 277.48 C445.84 300.1, 444.44 322.72, 440.84 344.94 C437.23 367.17, 431.47 390.43, 423.85 410.85 C416.23 431.26, 406.52 450, 395.11 467.45 C383.69 484.91, 369.84 502.15, 355.37 515.56 C340.9 528.96, 324.69 539.39, 308.29 547.88 C291.9 556.38, 274.6 563.13, 257 566.54 C239.39 569.95, 220.65 570.41, 202.68 568.35 C184.71 566.29, 166.04 561.54, 149.2 554.19 C132.36 546.83, 116.35 536.72, 101.62 524.2 C86.89 511.68, 73.08 495.58, 60.81 479.05 C48.54 462.52, 36.9 444.68, 28 425.03 C19.1 405.39, 11.93 383.3, 7.42 361.19 C2.91 339.09, 1.38 315.2, 0.93 292.38 C0.47 269.56, 1.2 246.27, 4.7 224.29 C8.2 202.3, 14.11 180.95, 21.93 160.46 C29.76 139.97, 40.06 118.87, 51.65 101.33 C63.23 83.8, 76.99 68.55, 91.45 55.25 C105.92 41.95, 120.95 30.34, 138.44 21.54 C155.93 12.74, 185.42 4.8, 196.4 2.46 C207.37 0.11, 203.91 2.88, 204.27 7.45 M228.97 1.05 C245.71 -2.82, 265.22 5.09, 282.65 11.04 C300.08 17, 317.96 25.47, 333.54 36.78 C349.13 48.1, 363.47 63.29, 376.16 78.93 C388.84 94.57, 400.04 111.49, 409.65 130.62 C419.26 149.76, 427.9 172.31, 433.8 193.74 C439.7 215.16, 443.28 236.59, 445.04 259.18 C446.81 281.76, 446.84 306.61, 444.39 329.22 C441.95 351.84, 437.13 373.88, 430.38 394.88 C423.62 415.88, 414.45 437.08, 403.89 455.22 C393.33 473.37, 380.69 489.34, 367.02 503.77 C353.36 518.19, 338.17 531.64, 321.87 541.78 C305.58 551.91, 286.83 560.07, 269.25 564.56 C251.68 569.06, 234 569.59, 216.44 568.74 C198.88 567.88, 181.14 565.31, 163.88 559.42 C146.61 553.52, 128.46 544.59, 112.85 533.36 C97.24 522.14, 83.18 507.66, 70.21 492.07 C57.25 476.48, 44.69 458.72, 35.07 439.81 C25.44 420.89, 18.28 400.37, 12.49 378.6 C6.7 356.82, 1.92 332.12, 0.33 309.17 C-1.26 286.22, -0.01 263.32, 2.96 240.89 C5.93 218.47, 11.15 195.5, 18.13 174.63 C25.11 153.76, 34.65 133.84, 44.85 115.67 C55.05 97.5, 65.81 80, 79.31 65.61 C92.82 51.21, 109.42 39.1, 125.87 29.28 C142.32 19.47, 160.76 11.58, 178.01 6.73 C195.26 1.88, 220.46 0.57, 229.38 0.17 C238.31 -0.23, 231.61 -0.45, 231.56 4.34" stroke="none" stroke-width="0" fill="#fff"></path><path d="M310.51 23.45 C327.29 27.64, 343.18 44.44, 357.41 57.91 C371.63 71.38, 384.73 86.83, 395.86 104.3 C406.99 121.76, 416.65 142.01, 424.2 162.71 C431.75 183.4, 437.41 205.99, 441.14 228.46 C444.87 250.94, 447.37 274.95, 446.6 297.56 C445.83 320.17, 441.69 342.4, 436.54 364.14 C431.39 385.87, 424.41 408, 415.71 427.96 C407.02 447.92, 396.5 467.66, 384.37 483.9 C372.25 500.14, 358.24 513.4, 342.98 525.4 C327.71 537.4, 309.87 548.43, 292.8 555.9 C275.74 563.38, 258.21 568.57, 240.58 570.26 C222.96 571.95, 204.57 569.95, 187.07 566.06 C169.57 562.18, 152 555.99, 135.6 546.96 C119.21 537.92, 102.87 525.66, 88.71 511.87 C74.55 498.07, 61.76 481.68, 50.65 464.19 C39.53 446.71, 29.72 427.34, 22 406.94 C14.28 386.55, 7.87 364.26, 4.33 341.81 C0.79 319.36, 0.03 295.14, 0.78 272.24 C1.53 249.35, 3.79 226.09, 8.82 204.46 C13.84 182.84, 21.83 162.04, 30.93 142.48 C40.02 122.93, 51.03 103.7, 63.41 87.14 C75.8 70.58, 90.33 55.31, 105.22 43.12 C120.12 30.94, 136.17 20.97, 152.8 14.03 C169.42 7.09, 187.12 3.11, 204.96 1.49 C222.8 -0.13, 240 -0.6, 259.84 4.3 C279.68 9.19, 311.71 24.22, 324 30.86 C336.29 37.5, 335.26 39.84, 333.6 44.13 M183.27 5.6 C199.25 -2.76, 218.45 -0.87, 235.95 0.28 C253.44 1.43, 270.97 5.92, 288.25 12.49 C305.54 19.06, 324.39 27.95, 339.65 39.7 C354.91 51.46, 367.31 66.91, 379.82 83.03 C392.34 99.15, 405.43 116.94, 414.74 136.45 C424.04 155.95, 430.58 178.39, 435.64 200.05 C440.69 221.7, 443.7 243.59, 445.04 266.37 C446.39 289.15, 446.8 314.2, 443.7 336.73 C440.61 359.26, 433.9 381.05, 426.49 401.55 C419.09 422.05, 410.4 441.99, 399.27 459.75 C388.15 477.5, 373.93 493.79, 359.75 508.07 C345.56 522.34, 330.11 535.9, 314.19 545.4 C298.27 554.9, 281.83 560.8, 264.23 565.09 C246.62 569.38, 226.49 572.25, 208.56 571.16 C190.63 570.06, 173.67 565.52, 156.64 558.51 C139.62 551.49, 121.35 541.01, 106.39 529.07 C91.43 517.13, 79.1 502.86, 66.88 486.86 C54.65 470.86, 42.28 452.54, 33.03 433.05 C23.78 413.56, 16.76 391.79, 11.39 369.91 C6.02 348.03, 2.16 324.6, 0.84 301.77 C-0.49 278.94, 0.2 255.14, 3.42 232.94 C6.65 210.74, 12.92 189.13, 20.2 168.58 C27.48 148.02, 36.15 127.77, 47.1 109.62 C58.05 91.47, 71.89 73.62, 85.88 59.66 C99.88 45.7, 114.73 34.99, 131.08 25.88 C147.44 16.77, 175.22 7.8, 184.03 5.01 C192.84 2.21, 183.47 4.68, 183.96 9.11" stroke="#000000" stroke-width="1" fill="none"></path></g><g transform="translate(934.9757682488092 369.89244448377235) rotate(0 61 12.5)"><text x="0" y="18" font-family="Virgil, Segoe UI Emoji" font-size="20px" fill="#000000" text-anchor="start" style="white-space: pre;" direction="ltr">Upload Item</text></g><g stroke-linecap="round"><g transform="translate(870.7124466011647 448.7691822681336) rotate(0 -251.86927065109404 151.35662825971565)"><path d="M0.08 0.66 C-83.75 50.92, -419.12 252.52, -503.03 302.76 M-1.34 -0.04 C-85.29 50.41, -420.01 251.17, -503.82 301.17" stroke="#000000" stroke-width="1" fill="none"></path></g><g transform="translate(870.7124466011647 448.7691822681336) rotate(0 -251.86927065109404 151.35662825971565)"><path d="M-483.8 278.4 C-488.55 284.66, -495.26 290.81, -504.12 300.05 M-484.69 278.13 C-491.9 285.35, -497.07 294.24, -503.6 301.31" stroke="#000000" stroke-width="1" fill="none"></path></g><g transform="translate(870.7124466011647 448.7691822681336) rotate(0 -251.86927065109404 151.35662825971565)"><path d="M-473.26 296.01 C-481.29 297.08, -491.1 298.04, -504.12 300.05 M-474.16 295.74 C-484.96 297.01, -493.68 299.97, -503.6 301.31" stroke="#000000" stroke-width="1" fill="none"></path></g></g><g transform="translate(871.8807626684521 524.6544945674779) rotate(0 138.5 12.5)"><text x="0" y="18" font-family="Virgil, Segoe UI Emoji" font-size="20px" fill="#000000" text-anchor="start" style="white-space: pre;" direction="ltr">response: image IPFS hash, </text></g><g stroke-linecap="round"><g transform="translate(380.26174520294524 752.9262112151902) rotate(0 236.9722684179444 -104.6803015463901)"><path d="M1.01 -0.57 C80.11 -35.83, 395.14 -176.23, 473.86 -211.1 M0.09 1.74 C79.05 -33.36, 393.39 -174.1, 472.64 -209.65" stroke="#000000" stroke-width="1" fill="none"></path></g><g transform="translate(380.26174520294524 752.9262112151902) rotate(0 236.9722684179444 -104.6803015463901)"><path d="M450.16 -189.6 C455.93 -195.74, 463.26 -200.04, 471.48 -209.69 M450.84 -188.33 C459.03 -195.08, 464.57 -203.05, 472.71 -209.02" stroke="#000000" stroke-width="1" fill="none"></path></g><g transform="translate(380.26174520294524 752.9262112151902) rotate(0 236.9722684179444 -104.6803015463901)"><path d="M441.77 -208.32 C449.62 -210.04, 458.96 -209.85, 471.48 -209.69 M442.45 -207.06 C453.41 -207.64, 461.72 -209.43, 472.71 -209.02" stroke="#000000" stroke-width="1" fill="none"></path></g></g><g transform="translate(818.3092469039435 713.7415684839583) rotate(0 175.5 37.5)"><text x="0" y="18" font-family="Virgil, Segoe UI Emoji" font-size="20px" fill="#000000" text-anchor="start" style="white-space: pre;" direction="ltr">- Take IPFS hash and prepare Eth</text><text x="0" y="43" font-family="Virgil, Segoe UI Emoji" font-size="20px" fill="#000000" text-anchor="start" style="white-space: pre;" direction="ltr">transaction to submit item to the</text><text x="0" y="68" font-family="Virgil, Segoe UI Emoji" font-size="20px" fill="#000000" text-anchor="start" style="white-space: pre;" direction="ltr">blockchain</text></g><g transform="translate(879.0233582320681 428.22574875274574) rotate(0 95 12.5)"><text x="0" y="18" font-family="Virgil, Segoe UI Emoji" font-size="20px" fill="#000000" text-anchor="start" style="white-space: pre;" direction="ltr">upload img to IPFS</text></g><g transform="translate(852.8328239128717 565.1304379966074) rotate(0 149.5 25)"><text x="0" y="18" font-family="Virgil, Segoe UI Emoji" font-size="20px" fill="#000000" text-anchor="start" style="white-space: pre;" direction="ltr">- build/get rest of item data,</text><text x="0" y="43" font-family="Virgil, Segoe UI Emoji" font-size="20px" fill="#000000" text-anchor="start" style="white-space: pre;" direction="ltr">upload to IPFS</text></g><g stroke-linecap="round"><g transform="translate(848.0710354084075 596.0831003108087) rotate(0 -196.61709625082818 104.25641737919341)"><path d="M-0.58 -1.16 C-66.13 33.79, -328.38 174.64, -393.87 209.67 M1.32 0.85 C-64.3 35.48, -328.69 173.11, -394.56 208.05" stroke="#000000" stroke-width="1" fill="none"></path></g><g transform="translate(848.0710354084075 596.0831003108087) rotate(0 -196.61709625082818 104.25641737919341)"><path d="M-376.29 186.69 C-377.94 192.85, -384.2 198.39, -394.11 210.04 M-375.01 185.12 C-381.32 193.83, -389.62 202.54, -395.48 207.45" stroke="#000000" stroke-width="1" fill="none"></path></g><g transform="translate(848.0710354084075 596.0831003108087) rotate(0 -196.61709625082818 104.25641737919341)"><path d="M-366.75 204.86 C-370.84 206.32, -379.54 207.21, -394.11 210.04 M-365.47 203.29 C-375.2 205.4, -386.96 207.54, -395.48 207.45" stroke="#000000" stroke-width="1" fill="none"></path></g></g><g stroke-linecap="round"><g transform="translate(463.7632524011407 826.0817755325259) rotate(0 188.5753227415184 -65.0497778657178)"><path d="M-0.37 -0.04 C62.67 -21.64, 314.51 -108.28, 377.52 -130.06 M1.63 -1.1 C64.61 -22.46, 314.17 -107.03, 376.76 -128.47" stroke="#000000" stroke-width="1" fill="none"></path></g><g transform="translate(463.7632524011407 826.0817755325259) rotate(0 188.5753227415184 -65.0497778657178)"><path d="M353.32 -109.08 C359.23 -113.25, 363.73 -118.36, 375.46 -129.39 M353.28 -108.96 C363.34 -117.39, 371.51 -124.59, 376.9 -129.15" stroke="#000000" stroke-width="1" fill="none"></path></g><g transform="translate(463.7632524011407 826.0817755325259) rotate(0 188.5753227415184 -65.0497778657178)"><path d="M346.7 -128.5 C354.14 -127.99, 360.22 -128.44, 375.46 -129.39 M346.67 -128.39 C359.35 -129.23, 370.11 -128.79, 376.9 -129.15" stroke="#000000" stroke-width="1" fill="none"></path></g></g><g transform="translate(852.2614825345232 678.059096618259) rotate(0 154.5 12.5)"><text x="0" y="18" font-family="Virgil, Segoe UI Emoji" font-size="20px" fill="#000000" text-anchor="start" style="white-space: pre;" direction="ltr">response: item data IPFS hash</text></g><g stroke-linecap="round" transform="translate(748.0711226014881 936.0353016266298) rotate(0 191.07142857142856 180.9524100167411)"><path d="M254.03 9.55 C271.08 12.12, 287.28 24.08, 301.97 34.03 C316.67 43.98, 331.2 55.75, 342.19 69.25 C353.19 82.74, 361.38 99.09, 367.94 114.98 C374.49 130.87, 379.88 147.75, 381.53 164.6 C383.17 181.44, 381.15 199.32, 377.79 216.06 C374.44 232.79, 369.69 250.04, 361.4 265 C353.11 279.97, 340.68 293.54, 328.06 305.85 C315.45 318.16, 301.14 330.31, 285.72 338.86 C270.3 347.41, 253.01 353.34, 235.53 357.14 C218.06 360.94, 198.75 362.5, 180.87 361.64 C162.98 360.78, 145.01 357.71, 128.22 351.98 C111.42 346.25, 94.81 337.14, 80.1 327.28 C65.39 317.42, 51.13 306.26, 39.95 292.8 C28.78 279.35, 19.45 262.39, 13.05 246.57 C6.65 230.75, 3.14 214.68, 1.54 197.87 C-0.06 181.06, 0.05 162.48, 3.45 145.72 C6.86 128.95, 13.44 112.18, 21.94 97.26 C30.45 82.35, 42.1 68.55, 54.5 56.23 C66.9 43.91, 80.77 31.91, 96.33 23.32 C111.89 14.73, 130.21 8.49, 147.85 4.7 C165.5 0.9, 183.7 -0.52, 202.18 0.54 C220.65 1.6, 248.88 8.37, 258.71 11.04 C268.53 13.71, 262.37 13.53, 261.11 16.56 M281.67 20.98 C298.09 26.42, 312.26 42.13, 325.13 54.19 C337.99 66.26, 350.2 78.5, 358.88 93.37 C367.56 108.24, 373.5 126.73, 377.23 143.4 C380.96 160.07, 382.28 176.82, 381.26 193.37 C380.23 209.93, 377.29 226.87, 371.08 242.73 C364.86 258.59, 355.08 274.89, 343.99 288.53 C332.89 302.18, 318.62 314.4, 304.52 324.6 C290.42 334.8, 276.25 343.7, 259.39 349.74 C242.54 355.78, 221.6 359.48, 203.4 360.84 C185.19 362.2, 167.41 361.37, 150.18 357.89 C132.96 354.41, 115.79 347.93, 100.05 339.95 C84.3 331.97, 68.54 322.04, 55.72 309.99 C42.9 297.95, 31.87 282.68, 23.12 267.67 C14.38 252.67, 7.26 236.61, 3.24 219.97 C-0.78 203.34, -2.67 185.05, -1 167.84 C0.68 150.63, 6.79 132.67, 13.3 116.72 C19.82 100.76, 27.55 85.71, 38.1 72.1 C48.64 58.49, 62.35 44.93, 76.59 35.06 C90.83 25.19, 106.53 18.78, 123.54 12.85 C140.56 6.93, 160.42 0.9, 178.66 -0.46 C196.9 -1.83, 215.69 0.9, 233 4.67 C250.3 8.44, 274.48 18.69, 282.46 22.15 C290.45 25.61, 282.29 23.01, 280.91 25.42" stroke="none" stroke-width="0" fill="#fff"></path><path d="M116.62 14.39 C131.19 5.37, 152.3 2.6, 170.15 0.5 C188 -1.6, 205.91 -1.28, 223.7 1.79 C241.49 4.87, 260.82 11.37, 276.89 18.97 C292.97 26.56, 307.26 35.88, 320.17 47.34 C333.07 58.8, 345 73.05, 354.34 87.71 C363.67 102.37, 371.58 118.8, 376.16 135.3 C380.74 151.8, 382.46 169.76, 381.81 186.74 C381.16 203.72, 377.8 221.08, 372.26 237.17 C366.72 253.26, 358.77 269.41, 348.57 283.3 C338.37 297.18, 325.09 309.73, 311.07 320.49 C297.05 331.24, 280.84 341.06, 264.47 347.83 C248.1 354.6, 230.49 359.13, 212.85 361.12 C195.21 363.11, 176.53 362.68, 158.62 359.77 C140.71 356.87, 121.68 351.33, 105.4 343.7 C89.12 336.07, 73.83 325.68, 60.93 314 C48.04 302.32, 37.27 288.3, 28 273.63 C18.74 258.96, 9.9 242.36, 5.37 225.97 C0.83 209.57, -0.01 192.08, 0.79 175.28 C1.59 158.48, 4.85 141.21, 10.17 125.16 C15.49 109.12, 22.69 93.14, 32.72 78.99 C42.75 64.84, 55.02 51.72, 70.32 40.28 C85.62 28.84, 113.94 15.05, 124.53 10.33 C135.11 5.6, 132.71 8.99, 133.81 11.93 M210.78 2.02 C227.88 0.81, 247.2 6.13, 263.84 12.69 C280.48 19.25, 296.42 30.52, 310.6 41.39 C324.79 52.25, 338.47 64.19, 348.94 77.88 C359.4 91.57, 367.79 107.28, 373.42 123.52 C379.05 139.77, 382.48 158.39, 382.72 175.35 C382.97 192.32, 379.6 208.8, 374.9 225.3 C370.21 241.81, 363.38 259.62, 354.56 274.39 C345.73 289.16, 334.88 302.54, 321.95 313.93 C309.02 325.32, 292.96 335.01, 276.98 342.72 C260.99 350.43, 243.72 357.39, 226.06 360.18 C208.4 362.96, 188.89 361.58, 171.01 359.43 C153.13 357.27, 135.57 353.49, 118.78 347.25 C101.98 341.01, 84.54 332.47, 70.24 321.99 C55.95 311.51, 43.01 298.17, 32.99 284.35 C22.97 270.54, 15.43 255.21, 10.12 239.09 C4.82 222.97, 1.84 204.86, 1.15 187.62 C0.45 170.38, 1.83 152.14, 5.94 135.64 C10.05 119.15, 16.52 103.34, 25.8 88.63 C35.09 73.92, 48.24 59.06, 61.64 47.4 C75.04 35.74, 90.23 26.29, 106.2 18.66 C122.17 11.04, 139.99 4.46, 157.45 1.64 C174.91 -1.18, 201.99 1.16, 210.97 1.75 C219.95 2.33, 211.73 2.54, 211.32 5.18" stroke="#000000" stroke-width="1" fill="none"></path></g><g transform="translate(849.2617441137646 982.416239475402) rotate(0 83.5 12.5)"><text x="0" y="18" font-family="Virgil, Segoe UI Emoji" font-size="20px" fill="#000000" text-anchor="start" style="white-space: pre;" direction="ltr">Metamask wallet</text></g><g stroke-linecap="round"><g transform="translate(813.5471968202377 753.4872637414512) rotate(0 -79.82666394543332 150.3081099721905)"><path d="M0.33 0.42 C-26.05 29.08, -156.13 121.58, -159.17 171.49 C-162.21 221.41, -41.68 278.41, -17.9 299.9 M-0.95 -0.41 C-27.38 27.96, -156.95 119.58, -159.93 169.82 C-162.91 220.06, -42.25 279.06, -18.82 301.02" stroke="#000000" stroke-width="1" fill="none"></path></g><g transform="translate(813.5471968202377 753.4872637414512) rotate(0 -79.82666394543332 150.3081099721905)"><path d="M-47.15 294.06 C-39.9 294.63, -35.38 298.69, -18.55 302.26 M-48.06 293.68 C-38.95 295.06, -29.86 297.12, -18.63 300.84" stroke="#000000" stroke-width="1" fill="none"></path></g><g transform="translate(813.5471968202377 753.4872637414512) rotate(0 -79.82666394543332 150.3081099721905)"><path d="M-35.5 277.16 C-30.95 281.58, -29.05 289.46, -18.55 302.26 M-36.41 276.78 C-30.57 283.05, -24.91 290.07, -18.63 300.84" stroke="#000000" stroke-width="1" fill="none"></path></g></g><g transform="translate(811.1662153749252 1054.416283071942) rotate(0 83 25)"><text x="0" y="18" font-family="Virgil, Segoe UI Emoji" font-size="20px" fill="#000000" text-anchor="start" style="white-space: pre;" direction="ltr">Sign and </text><text x="0" y="43" font-family="Virgil, Segoe UI Emoji" font-size="20px" fill="#000000" text-anchor="start" style="white-space: pre;" direction="ltr">send transaction</text></g><g stroke-linecap="round"><g transform="translate(801.6423767867556 1115.797177324174) rotate(0 -124.48749774791423 -448.92944977136074)"><path d="M-0.86 0.47 C-42.27 -41.56, -246.79 -102.95, -248.74 -252.75 C-250.69 -402.55, -52.19 -790.95, -12.56 -898.33 M0.89 -0.33 C-40.68 -42.64, -248.02 -104.9, -249.86 -254.44 C-251.7 -403.98, -50.06 -790.67, -10.14 -897.57" stroke="#000000" stroke-width="1" fill="none"></path></g><g transform="translate(801.6423767867556 1115.797177324174) rotate(0 -124.48749774791423 -448.92944977136074)"><path d="M-11.36 -868.18 C-10.08 -877.42, -12.66 -883.02, -9.78 -896.88 M-12.14 -866.88 C-11.89 -879.97, -11.55 -890.85, -10.94 -897.32" stroke="#000000" stroke-width="1" fill="none"></path></g><g transform="translate(801.6423767867556 1115.797177324174) rotate(0 -124.48749774791423 -448.92944977136074)"><path d="M-30.13 -876.48 C-23.68 -883.28, -21.06 -886.58, -9.78 -896.88 M-30.91 -875.18 C-23.3 -884.95, -15.61 -892.59, -10.94 -897.32" stroke="#000000" stroke-width="1" fill="none"></path></g></g><g stroke-linecap="round" transform="translate(1229.832911105952 354.41628307194225) rotate(0 233.33330426897317 274.4047328404017)"><path d="M141.71 22.25 C156.38 10.03, 175.83 7.43, 194.13 3.88 C212.43 0.32, 232.83 -0.63, 251.53 0.94 C270.23 2.51, 288.82 6.34, 306.33 13.29 C323.84 20.24, 340.74 30.96, 356.6 42.64 C372.46 54.31, 388.48 67.91, 401.48 83.36 C414.49 98.81, 425.28 116.42, 434.63 135.33 C443.99 154.24, 452.18 175.81, 457.61 196.82 C463.04 217.84, 466.35 239.39, 467.23 261.42 C468.11 283.46, 466.79 307.46, 462.91 329.01 C459.02 350.56, 451.96 370.89, 443.93 390.7 C435.89 410.5, 426.36 430.79, 414.69 447.82 C403.02 464.86, 388.72 479.78, 373.89 492.92 C359.05 506.05, 342.85 518, 325.66 526.62 C308.46 535.23, 289.09 540.96, 270.71 544.6 C252.34 548.23, 233.72 550.13, 215.4 548.42 C197.08 546.72, 178.41 541.41, 160.8 534.36 C143.19 527.32, 125.55 517.59, 109.74 506.14 C93.92 494.69, 79.04 481.41, 65.9 465.66 C52.76 449.91, 40.33 430.55, 30.9 411.64 C21.47 392.74, 14.49 373.25, 9.34 352.25 C4.2 331.25, 0.74 307.59, 0.01 285.63 C-0.71 263.68, 1.18 241.67, 5.01 220.51 C8.84 199.36, 15.09 178.51, 22.99 158.68 C30.89 138.86, 40.77 118.55, 52.41 101.54 C64.06 84.54, 76.5 70.67, 92.88 56.64 C109.25 42.61, 138.96 23.71, 150.66 17.37 C162.37 11.03, 161.55 14.25, 163.12 18.59 M278.2 4.86 C296.47 4.18, 316.23 15.23, 333.18 24.48 C350.13 33.73, 365.76 46.5, 379.88 60.35 C394.01 74.2, 406.85 90.29, 417.93 107.57 C429.02 124.86, 439.04 143.73, 446.39 164.05 C453.73 184.37, 458.65 207.59, 461.98 229.5 C465.31 251.41, 467.48 273.82, 466.36 295.51 C465.24 317.21, 461.05 339.15, 455.27 359.66 C449.48 380.18, 441.73 400.19, 431.65 418.6 C421.57 437.01, 408.34 454.52, 394.77 470.14 C381.2 485.76, 366.19 501.27, 350.24 512.34 C334.28 523.4, 316.66 530.69, 299.02 536.54 C281.39 542.38, 263.09 546.19, 244.43 547.41 C225.77 548.63, 205.34 547.76, 187.04 543.86 C168.75 539.96, 151.13 533.48, 134.67 524 C118.21 514.52, 102.56 500.85, 88.27 486.97 C73.97 473.1, 60.5 458.1, 48.9 440.76 C37.31 423.42, 26.54 402.99, 18.69 382.94 C10.84 362.88, 5.01 342.05, 1.82 320.41 C-1.37 298.77, -2.03 274.73, -0.44 253.08 C1.14 231.43, 5.28 211.09, 11.32 190.49 C17.36 169.9, 25.67 148.44, 35.81 129.52 C45.95 110.61, 58.94 92.52, 72.16 77 C85.38 61.47, 99.09 47.13, 115.13 36.38 C131.17 25.63, 150.62 18.35, 168.39 12.49 C186.15 6.63, 203.23 2.24, 221.74 1.21 C240.25 0.17, 270.21 4.66, 279.46 6.29 C288.71 7.92, 278.21 6.51, 277.23 11.01" stroke="none" stroke-width="0" fill="#fff"></path><path d="M304.03 12.55 C322.21 14.86, 340.67 29.54, 356.61 41.1 C372.56 52.66, 386.92 66.41, 399.71 81.91 C412.51 97.41, 423.94 115.34, 433.38 134.08 C442.81 152.83, 450.67 173.37, 456.31 194.37 C461.96 215.38, 466.25 238.14, 467.23 260.1 C468.21 282.05, 465.74 304.49, 462.18 326.09 C458.61 347.68, 453.41 369.74, 445.84 389.67 C438.27 409.6, 428.3 428.72, 416.74 445.64 C405.19 462.57, 391.47 477.99, 376.48 491.22 C361.5 504.44, 344.11 516.22, 326.85 524.98 C309.59 533.75, 291.37 540.02, 272.94 543.8 C254.51 547.58, 234.8 548.88, 216.28 547.66 C197.76 546.45, 179.36 543.29, 161.83 536.52 C144.31 529.75, 126.89 518.57, 111.12 507.03 C95.36 495.49, 80.44 482.88, 67.25 467.29 C54.07 451.69, 41.39 432.27, 32 413.44 C22.61 394.62, 16.18 375.24, 10.92 354.35 C5.67 333.47, 1.77 310.07, 0.48 288.13 C-0.8 266.18, -0.2 243.99, 3.22 222.68 C6.63 201.37, 13.15 180.05, 20.97 160.28 C28.79 140.5, 38.47 121.34, 50.15 104.03 C61.82 86.73, 76.2 69.8, 91.02 56.47 C105.84 43.14, 122.18 32.84, 139.08 24.07 C155.99 15.3, 174.09 7.87, 192.44 3.87 C210.79 -0.12, 228.79 -2.07, 249.2 0.1 C269.61 2.28, 302.61 12.46, 314.91 16.92 C327.2 21.39, 324.41 22.53, 322.97 26.9 M187.79 4.22 C204.34 -3.94, 225.68 0.53, 243.97 1.6 C262.26 2.66, 280.05 4.65, 297.54 10.63 C315.03 16.61, 332.84 26.48, 348.9 37.49 C364.96 48.51, 380.2 61.6, 393.89 76.71 C407.58 91.82, 421.04 109.76, 431.02 128.13 C441 146.51, 447.81 166.35, 453.79 186.95 C459.78 207.56, 465.3 229.98, 466.94 251.75 C468.57 273.51, 466.84 296.01, 463.61 317.54 C460.38 339.07, 454.95 360.66, 447.56 380.93 C440.17 401.2, 430.52 421.61, 419.25 439.15 C407.98 456.69, 394.37 472.07, 379.94 486.19 C365.5 500.3, 349.27 514.41, 332.67 523.84 C316.06 533.26, 298.5 538.65, 280.31 542.74 C262.12 546.83, 242.29 548.99, 223.51 548.37 C204.73 547.75, 185.26 545.3, 167.62 539.01 C149.97 532.71, 133.88 521.5, 117.64 510.6 C101.4 499.7, 83.89 488.4, 70.17 473.61 C56.46 458.81, 45.24 440.58, 35.35 421.81 C25.45 403.05, 16.58 382.03, 10.81 361.04 C5.04 340.04, 2.23 317.48, 0.74 295.85 C-0.76 274.22, -1.29 252.5, 1.84 231.25 C4.97 209.99, 11.83 188.7, 19.5 168.29 C27.17 147.89, 36.78 126.36, 47.87 108.8 C58.96 91.24, 71.81 76.58, 86.06 62.95 C100.31 49.32, 116.46 36.5, 133.37 27.02 C150.28 17.53, 178.45 8.66, 187.52 6.04 C196.6 3.43, 187.21 6.78, 187.83 11.31" stroke="#000000" stroke-width="1" fill="none"></path></g><g transform="translate(1398.8804138961304 372.79722092071455) rotate(0 49.5 12.5)"><text x="0" y="18" font-family="Virgil, Segoe UI Emoji" font-size="20px" fill="#000000" text-anchor="start" style="white-space: pre;" direction="ltr">View items</text></g><g stroke-linecap="round" transform="translate(1183.1976920769334 673.1147839322474) rotate(0 272.222391764323 259.72218831380206)"><path d="M280.14 -0.57 C300.05 -4.24, 321.9 2.65, 342.26 8 C362.62 13.35, 383.69 21.86, 402.31 31.54 C420.93 41.22, 438.46 52.79, 453.98 66.08 C469.5 79.38, 483.65 95.1, 495.43 111.32 C507.22 127.53, 517.09 144.97, 524.68 163.39 C532.27 181.81, 537.73 201.99, 540.97 221.82 C544.21 241.64, 545.98 262.33, 544.13 282.36 C542.28 302.39, 536.71 323.09, 529.85 341.98 C522.99 360.88, 513.83 378.78, 502.95 395.74 C492.08 412.69, 479.18 429.34, 464.59 443.71 C450 458.07, 433.39 471.34, 415.42 481.92 C397.44 492.5, 376.71 501.18, 356.75 507.22 C336.78 513.25, 316.43 516.72, 295.63 518.13 C274.83 519.54, 252.65 518.67, 231.96 515.69 C211.28 512.7, 191.01 507.49, 171.54 500.22 C152.06 492.95, 132.12 483.39, 115.12 472.08 C98.11 460.78, 83.25 447.12, 69.51 432.38 C55.76 417.64, 42.78 401.29, 32.65 383.62 C22.51 365.95, 14.27 345.66, 8.71 326.35 C3.15 307.04, -0.35 287.78, -0.71 267.77 C-1.08 247.75, 2 225.89, 6.5 206.29 C11 186.69, 17.43 168.21, 26.29 150.16 C35.16 132.11, 46.72 113.79, 59.67 98 C72.62 82.21, 87.54 67.81, 103.99 55.4 C120.44 42.99, 139.52 31.8, 158.34 23.52 C177.16 15.25, 195.75 9.58, 216.91 5.73 C238.07 1.87, 273.07 0.43, 285.31 0.41 C297.55 0.38, 290.52 1.25, 290.32 5.58 M394.97 28.73 C414.64 33.14, 430.01 47.42, 445.95 60.12 C461.88 72.82, 477.9 88.74, 490.57 104.91 C503.24 121.08, 513.85 139.04, 521.95 157.14 C530.05 175.25, 535.24 193.81, 539.15 213.54 C543.06 233.27, 546.21 255.58, 545.39 275.54 C544.57 295.5, 540.34 314.42, 534.22 333.3 C528.1 352.18, 519.32 371.54, 508.68 388.81 C498.04 406.07, 485.06 422.31, 470.36 436.88 C455.66 451.45, 438.23 465.3, 420.49 476.22 C402.74 487.15, 383.3 495.3, 363.9 502.43 C344.49 509.56, 324.54 516.36, 304.06 518.99 C283.58 521.63, 261.98 520.7, 241.03 518.24 C220.08 515.77, 198.35 511.16, 178.36 504.23 C158.38 497.31, 138.55 487.6, 121.1 476.69 C103.66 465.78, 88.05 453.24, 73.7 438.78 C59.34 424.31, 45.4 407.46, 34.97 389.92 C24.53 372.39, 16.65 352.57, 11.09 333.58 C5.53 314.58, 2.87 295.59, 1.61 275.94 C0.35 256.3, 0.24 235.41, 3.52 215.7 C6.8 195.99, 13.04 176.03, 21.3 157.69 C29.57 139.34, 40.34 121.77, 53.11 105.63 C65.88 89.48, 81.65 73.95, 97.93 60.82 C114.21 47.69, 132.11 35.6, 150.79 26.87 C169.48 18.13, 189.74 12.73, 210.03 8.41 C230.32 4.09, 251.7 1.08, 272.55 0.94 C293.41 0.8, 314.61 2.91, 335.15 7.58 C355.69 12.25, 386.54 24.62, 395.8 28.94 C405.07 33.26, 393.12 29.77, 390.75 33.5" stroke="none" stroke-width="0" fill="#fff"></path><path d="M370.19 16.57 C390.46 19.13, 407.94 33.02, 425.17 44.21 C442.4 55.4, 459.4 68.79, 473.57 83.7 C487.74 98.61, 500.03 116.19, 510.17 133.66 C520.31 151.13, 528.81 169.23, 534.42 188.51 C540.02 207.79, 543.01 229.28, 543.8 249.32 C544.58 269.36, 543.12 289.31, 539.13 308.76 C535.14 328.21, 528.5 347.85, 519.86 366 C511.23 384.14, 499.98 401.86, 487.32 417.63 C474.65 433.4, 460.07 448.03, 443.86 460.62 C427.65 473.21, 408.74 484.33, 390.08 493.16 C371.42 501.98, 352.3 509.24, 331.89 513.57 C311.49 517.9, 288.76 519.59, 267.65 519.16 C246.53 518.72, 225.31 515.73, 205.2 510.98 C185.1 506.23, 165.68 499.98, 146.99 490.66 C128.31 481.34, 108.87 468.34, 93.08 455.07 C77.29 441.81, 64.25 427.23, 52.26 411.07 C40.28 394.91, 29.31 376.47, 21.15 358.1 C12.99 339.73, 6.76 320.56, 3.29 300.84 C-0.18 281.13, -1.32 259.63, 0.35 239.81 C2.01 219.99, 6.74 200.72, 13.28 181.93 C19.82 163.14, 29.04 144.29, 39.6 127.09 C50.16 109.9, 62.1 93.19, 76.65 78.76 C91.21 64.34, 109.13 51.21, 126.93 40.56 C144.73 29.91, 163.75 21.38, 183.45 14.86 C203.16 8.34, 224.35 3.56, 245.15 1.45 C265.95 -0.67, 285.84 -1.17, 308.28 2.17 C330.72 5.52, 366.78 17.05, 379.8 21.52 C392.83 25.99, 388.37 25.18, 386.43 29 M362.72 15.18 C383.01 17.71, 402.04 30.58, 419.49 41.12 C436.94 51.65, 452.73 63.9, 467.41 78.4 C482.08 92.91, 496.8 110.87, 507.54 128.14 C518.28 145.4, 526.04 162.98, 531.85 182.02 C537.65 201.06, 540.93 222.18, 542.37 242.38 C543.81 262.57, 543.88 283.39, 540.5 303.18 C537.11 322.97, 529.89 343.05, 522.06 361.12 C514.23 379.19, 505.7 395.65, 493.51 411.61 C481.32 427.57, 464.83 443.82, 448.93 456.89 C433.03 469.95, 416.68 480.84, 398.13 490 C379.57 499.15, 358.03 507.14, 337.6 511.81 C317.16 516.48, 296.5 517.81, 275.51 518.01 C254.51 518.21, 232 517.03, 211.64 513 C191.29 508.97, 172.22 502.49, 153.37 493.82 C134.53 485.16, 115.03 473.75, 98.56 461.02 C82.09 448.29, 66.95 433.61, 54.54 417.44 C42.12 401.26, 32.6 382.32, 24.07 363.99 C15.54 345.66, 7.18 326.93, 3.34 307.46 C-0.5 287.99, 0.02 266.96, 1.01 247.16 C2 227.37, 3.61 207.62, 9.26 188.7 C14.91 169.77, 24.18 151.04, 34.91 133.62 C45.63 116.21, 59.42 98.95, 73.59 84.18 C87.75 69.41, 102.56 56.38, 119.91 44.98 C137.27 33.58, 158.16 22.9, 177.74 15.76 C197.32 8.62, 216.85 4.36, 237.39 2.13 C257.93 -0.1, 280.1 0.18, 300.99 2.37 C321.88 4.57, 352.8 12.27, 362.74 15.28 C372.68 18.3, 362.24 16.53, 360.63 20.46" stroke="#000000" stroke-width="1" fill="none"></path></g><g transform="translate(1394.309142272246 698.8369213834193) rotate(0 60.5 12.5)"><text x="0" y="18" font-family="Virgil, Segoe UI Emoji" font-size="20px" fill="#000000" text-anchor="start" style="white-space: pre;" direction="ltr">view an item</text></g><g transform="translate(1848.4760123894334 350.22590352046365) rotate(0 113 25)"><text x="0" y="18" font-family="Virgil, Segoe UI Emoji" font-size="20px" fill="#000000" text-anchor="start" style="white-space: pre;" direction="ltr">- get items from </text><text x="0" y="43" font-family="Virgil, Segoe UI Emoji" font-size="20px" fill="#000000" text-anchor="start" style="white-space: pre;" direction="ltr">smart contract via JS</text></g><g transform="translate(1858.1983024284964 421.059262285112) rotate(0 155 25)"><text x="0" y="18" font-family="Virgil, Segoe UI Emoji" font-size="20px" fill="#000000" text-anchor="start" style="white-space: pre;" direction="ltr">response: array of objects with</text><text x="0" y="43" font-family="Virgil, Segoe UI Emoji" font-size="20px" fill="#000000" text-anchor="start" style="white-space: pre;" direction="ltr">IPFS hashes</text></g><g stroke-linecap="round"><g transform="translate(1837.5813162670747 356.27909612115417) rotate(0 -447.33021908055 -130.623387947874)"><path d="M0.29 -1.1 C-86.2 -35.45, -369.61 -161.62, -518.67 -205.13 C-667.72 -248.65, -831.52 -252.85, -894.04 -262.19 M-1.02 0.94 C-87.13 -33.2, -367.32 -162.95, -516.31 -206.68 C-665.3 -250.42, -832.09 -252.55, -894.95 -261.46" stroke="#000000" stroke-width="1" fill="none"></path></g><g transform="translate(1837.5813162670747 356.27909612115417) rotate(0 -447.33021908055 -130.623387947874)"><path d="M-867.76 -270.21 C-873.39 -267.04, -886.39 -264.09, -895.15 -263.34 M-866.92 -268.7 C-875.34 -266.99, -883.51 -265.4, -894.28 -261.86" stroke="#000000" stroke-width="1" fill="none"></path></g><g transform="translate(1837.5813162670747 356.27909612115417) rotate(0 -447.33021908055 -130.623387947874)"><path d="M-869.65 -249.78 C-874.84 -253.18, -887.23 -256.8, -895.15 -263.34 M-868.8 -248.26 C-876.48 -252.66, -884.08 -257.2, -894.28 -261.86" stroke="#000000" stroke-width="1" fill="none"></path></g></g><g stroke-linecap="round"><g transform="translate(945.4588819815748 111.06284016156127) rotate(0 452.40904304682624 164.89412362209083)"><path d="M0.63 0.98 C60.25 13.74, 232.54 38.07, 357.8 75.82 C483.06 113.57, 661.04 185.23, 752.21 227.49 C843.39 269.74, 879.61 312.61, 904.84 329.34 M-0.49 0.45 C58.94 13.44, 231.36 39.08, 356.74 77.15 C482.11 115.23, 660.33 187.21, 751.76 228.89 C843.18 270.56, 879.72 310.72, 905.31 327.22" stroke="#000000" stroke-width="1" fill="none"></path></g><g transform="translate(945.4588819815748 111.06284016156127) rotate(0 452.40904304682624 164.89412362209083)"><path d="M878.29 317.98 C884.75 321.89, 894.48 324.37, 906.7 325.82 M877.2 317.6 C883.18 320.39, 891.08 322.35, 905.89 326.63" stroke="#000000" stroke-width="1" fill="none"></path></g><g transform="translate(945.4588819815748 111.06284016156127) rotate(0 452.40904304682624 164.89412362209083)"><path d="M890.7 301.64 C893.25 310.64, 899.17 318.14, 906.7 325.82 M889.61 301.26 C892.55 307.95, 897.43 313.91, 905.89 326.63" stroke="#000000" stroke-width="1" fill="none"></path></g></g><g transform="translate(1841.5312288607875 500.22592895177877) rotate(0 201.5 50)"><text x="0" y="18" font-family="Virgil, Segoe UI Emoji" font-size="20px" fill="#000000" text-anchor="start" style="white-space: pre;" direction="ltr">- lookup hashes on IPFS gateway</text><text x="0" y="43" font-family="Virgil, Segoe UI Emoji" font-size="20px" fill="#000000" text-anchor="start" style="white-space: pre;" direction="ltr">(just a link/url) and parse the JSON,</text><text x="0" y="68" font-family="Virgil, Segoe UI Emoji" font-size="20px" fill="#000000" text-anchor="start" style="white-space: pre;" direction="ltr">and grab the image hash so we can then</text><text x="0" y="93" font-family="Virgil, Segoe UI Emoji" font-size="20px" fill="#000000" text-anchor="start" style="white-space: pre;" direction="ltr">load the images</text></g><g transform="translate(1374.8649690951634 422.67035644201303) rotate(0 43.5 12.5)"><text x="0" y="18" font-family="Virgil, Segoe UI Emoji" font-size="20px" fill="#000000" text-anchor="start" style="white-space: pre;" direction="ltr">get page</text></g><g transform="translate(1840.1426790561004 614.1147839322473) rotate(0 139 25)"><text x="0" y="18" font-family="Virgil, Segoe UI Emoji" font-size="20px" fill="#000000" text-anchor="start" style="white-space: pre;" direction="ltr">- Send the item datas and </text><text x="0" y="43" font-family="Virgil, Segoe UI Emoji" font-size="20px" fill="#000000" text-anchor="start" style="white-space: pre;" direction="ltr">image URLs to the client</text></g><g stroke-linecap="round"><g transform="translate(1485.976012389434 434.2258780891484) rotate(0 157.37183013975573 -34.787861085945885)"><path d="M0.85 -0.15 C53.5 -11.57, 262.58 -56.35, 314.91 -67.73 M-0.17 -1.28 C52.43 -13.1, 261.64 -58.46, 314.02 -69.42" stroke="#000000" stroke-width="1" fill="none"></path></g><g transform="translate(1485.976012389434 434.2258780891484) rotate(0 157.37183013975573 -34.787861085945885)"><path d="M288.34 -53.32 C295.35 -57.04, 299.62 -59.44, 312.78 -70.05 M289.35 -52.51 C294.52 -58.02, 301.97 -62.29, 313.89 -69.92" stroke="#000000" stroke-width="1" fill="none"></path></g><g transform="translate(1485.976012389434 434.2258780891484) rotate(0 157.37183013975573 -34.787861085945885)"><path d="M284.05 -73.38 C292.11 -72.82, 297.31 -70.9, 312.78 -70.05 M285.06 -72.58 C291.34 -73.16, 299.85 -72.5, 313.89 -69.92" stroke="#000000" stroke-width="1" fill="none"></path></g></g><g stroke-linecap="round"><g transform="translate(1798.4629640641874 583.6847311252578) rotate(0 -97.47658660452907 -31.443311086597177)"><path d="M1.17 0.17 C-31.15 -10.22, -162.44 -51.02, -194.95 -61.52 M0.32 -0.78 C-32.1 -11.55, -163.69 -52.92, -196.12 -63.06" stroke="#000000" stroke-width="1" fill="none"></path></g><g transform="translate(1798.4629640641874 583.6847311252578) rotate(0 -97.47658660452907 -31.443311086597177)"><path d="M-165.86 -65.12 C-170.61 -62.72, -179.11 -61.61, -195.67 -64.6 M-166.52 -64.83 C-178.17 -63.5, -188.71 -63.61, -196.1 -62.99" stroke="#000000" stroke-width="1" fill="none"></path></g><g transform="translate(1798.4629640641874 583.6847311252578) rotate(0 -97.47658660452907 -31.443311086597177)"><path d="M-172.01 -45.54 C-175.59 -47.33, -182.79 -50.36, -195.67 -64.6 M-172.67 -45.25 C-182.03 -51.22, -190.29 -58.62, -196.1 -62.99" stroke="#000000" stroke-width="1" fill="none"></path></g></g><g transform="translate(1327.6427807813602 508.5592114224818) rotate(0 134 25)"><text x="0" y="18" font-family="Virgil, Segoe UI Emoji" font-size="20px" fill="#000000" text-anchor="start" style="white-space: pre;" direction="ltr">Display the items with links</text><text x="0" y="43" font-family="Virgil, Segoe UI Emoji" font-size="20px" fill="#000000" text-anchor="start" style="white-space: pre;" direction="ltr">to each "Details" page</text></g><g transform="translate(1319.3093457227674 600.2258272265182) rotate(0 86 12.5)"><text x="0" y="18" font-family="Virgil, Segoe UI Emoji" font-size="20px" fill="#000000" text-anchor="start" style="white-space: pre;" direction="ltr">Click on an item...</text></g><g stroke-linecap="round"><g transform="translate(1502.6426790561004 610.6147839322474) rotate(0 149.3274753543899 54.53789419193549)"><path d="M0.77 0.75 C20.46 10, 68.7 36.54, 118.4 54.45 C168.09 72.35, 268.57 99.07, 298.93 108.18 M-0.28 0.09 C19.26 9.54, 67.93 37.26, 117.63 55.4 C167.32 73.55, 267.86 99.86, 297.88 108.98" stroke="#000000" stroke-width="1" fill="none"></path></g><g transform="translate(1502.6426790561004 610.6147839322474) rotate(0 149.3274753543899 54.53789419193549)"><path d="M269.21 111.71 C275.73 109.34, 285.54 111.43, 297.73 109.55 M268.4 111.02 C275.77 109.91, 282.82 110.69, 297.91 109.18" stroke="#000000" stroke-width="1" fill="none"></path></g><g transform="translate(1502.6426790561004 610.6147839322474) rotate(0 149.3274753543899 54.53789419193549)"><path d="M274.82 91.97 C279.37 95.97, 287.38 104.39, 297.73 109.55 M274.02 91.28 C280.08 94.71, 285.83 100.07, 297.91 109.18" stroke="#000000" stroke-width="1" fill="none"></path></g></g><g transform="translate(1310.9761141146946 746.0591605598516) rotate(0 127 25)"><text x="0" y="18" font-family="Virgil, Segoe UI Emoji" font-size="20px" fill="#000000" text-anchor="start" style="white-space: pre;" direction="ltr">- display item details at </text><text x="0" y="43" font-family="Virgil, Segoe UI Emoji" font-size="20px" fill="#000000" text-anchor="start" style="white-space: pre;" direction="ltr">url: /hash or /id</text></g><g transform="translate(1284.5871574089651 819.6703055793828) rotate(0 82 12.5)"><text x="0" y="18" font-family="Virgil, Segoe UI Emoji" font-size="20px" fill="#000000" text-anchor="start" style="white-space: pre;" direction="ltr">Purchase button</text></g><g transform="translate(1209.892806212676 857.8094403043182) rotate(0 242.0000000000001 25)"><text x="0" y="18" font-family="Virgil, Segoe UI Emoji" font-size="20px" fill="#000000" text-anchor="start" style="white-space: pre;" direction="ltr">- need to trigger transaction to smart contract</text><text x="0" y="43" font-family="Virgil, Segoe UI Emoji" font-size="20px" fill="#000000" text-anchor="start" style="white-space: pre;" direction="ltr">for the Price amount + fees</text></g><g stroke-linecap="round"><g transform="translate(1198.781762918405 868.1982444221567) rotate(0 -104.2296624653444 93.64235064729121)"><path d="M-0.29 0.91 C-35.06 31.78, -174.58 154.73, -209.43 185.65 M1.76 0.34 C-33.08 31.34, -174.93 155.68, -210.22 186.95" stroke="#000000" stroke-width="1" fill="none"></path></g><g transform="translate(1198.781762918405 868.1982444221567) rotate(0 -104.2296624653444 93.64235064729121)"><path d="M-194.34 161.1 C-199.9 167.34, -201.97 173.78, -208.91 188.78 M-196.05 161.05 C-200.24 170.44, -206.08 179.61, -210.26 186.8" stroke="#000000" stroke-width="1" fill="none"></path></g><g transform="translate(1198.781762918405 868.1982444221567) rotate(0 -104.2296624653444 93.64235064729121)"><path d="M-180.78 176.5 C-189.59 179.09, -194.84 181.9, -208.91 188.78 M-182.48 176.45 C-191.55 180.51, -202.17 184.27, -210.26 186.8" stroke="#000000" stroke-width="1" fill="none"></path></g></g><g stroke-linecap="round"><g transform="translate(989.0595237419731 1091.809389441688) rotate(0 123.96769869824243 -68.36157872851629)"><path d="M-0.79 -0.94 C40.84 -23.64, 207.01 -113.32, 248.72 -135.9 M1 1.19 C42.57 -21.94, 206.47 -115.17, 247.84 -137.91" stroke="#000000" stroke-width="1" fill="none"></path></g><g transform="translate(989.0595237419731 1091.809389441688) rotate(0 123.96769869824243 -68.36157872851629)"><path d="M226.7 -114.99 C232.7 -118.39, 235.98 -125.81, 246.5 -138.13 M229.25 -115.92 C234.5 -123.41, 242.67 -131.49, 247.68 -138.64" stroke="#000000" stroke-width="1" fill="none"></path></g><g transform="translate(989.0595237419731 1091.809389441688) rotate(0 123.96769869824243 -68.36157872851629)"><path d="M216.67 -132.89 C224.85 -132.42, 230.26 -136.05, 246.5 -138.13 M219.22 -133.82 C227.94 -135.12, 239.58 -137.01, 247.68 -138.64" stroke="#000000" stroke-width="1" fill="none"></path></g></g><g transform="translate(1251.559523741973 935.5872011278858) rotate(0 107.5 12.5)"><text x="0" y="18" font-family="Virgil, Segoe UI Emoji" font-size="20px" fill="#000000" text-anchor="start" style="white-space: pre;" direction="ltr">some confirm response</text></g><g stroke-linecap="round" transform="translate(1805.7262921338997 722.3650128140839) rotate(0 221.5277099609375 153.47223917643223)"><path d="M0.51 1.38 L444.34 0 L443.02 308.42 L-1.6 307.36" stroke="none" stroke-width="0" fill="#fff"></path><path d="M0.43 -0.59 C167 0.13, 334.05 1.07, 442.69 0.81 M0.05 -0.27 C147.02 -0.06, 293.77 -0.01, 442.91 0.18 M444.35 0.19 C442.75 120.83, 443.41 242.69, 443.52 307.01 M443.28 0.17 C441.58 82.27, 441.22 164.04, 443.59 307.62 M443.31 307 C312.62 307.46, 184.06 307.84, -0.57 306.86 M442.7 307.29 C329.37 308.69, 216.72 308.78, 0.24 307.19 M-0.99 307.93 C-0.95 223.56, -1.22 140.59, -0.11 0.48 M-0.04 307.18 C2.44 208.93, 2.07 109.66, 0.34 -0.52" stroke="#000000" stroke-width="1" fill="none"></path></g><g transform="translate(1873.7817120557747 317.53167948075054) rotate(0 53 12.5)"><text x="0" y="18" font-family="Virgil, Segoe UI Emoji" font-size="20px" fill="#000000" text-anchor="start" style="white-space: pre;" direction="ltr">Get Items</text></g><g transform="translate(1875.1706687615042 723.087251990516) rotate(0 68.5 12.5)"><text x="0" y="18" font-family="Virgil, Segoe UI Emoji" font-size="20px" fill="#000000" text-anchor="start" style="white-space: pre;" direction="ltr">Get An Item?</text></g><g transform="translate(1848.7817120557747 753.6427227750214) rotate(0 178.5 12.5)"><text x="0" y="18" font-family="Virgil, Segoe UI Emoji" font-size="20px" fill="#000000" text-anchor="start" style="white-space: pre;" direction="ltr">- get the item from smart contract</text></g><g stroke-linecap="round"><g transform="translate(1800.0421351273653 935.7143966895472) rotate(0 -137.18113765795465 -112.08353464739224)"><path d="M-0.79 -0.09 C-16.51 -29.42, -48.43 -138.21, -94.08 -175.54 C-139.73 -212.87, -244.48 -216.09, -274.69 -224.08 M0.99 -1.18 C-14.4 -30.44, -45.92 -137.55, -91.98 -174.57 C-138.04 -211.59, -244.8 -215.28, -275.36 -223.29" stroke="#000000" stroke-width="1" fill="none"></path></g><g transform="translate(1800.0421351273653 935.7143966895472) rotate(0 -137.18113765795465 -112.08353464739224)"><path d="M-246.05 -230.92 C-257.13 -227.05, -266.45 -226.26, -276.05 -223.78 M-246.69 -229.74 C-253.26 -226.79, -257.69 -227.11, -274.61 -223.66" stroke="#000000" stroke-width="1" fill="none"></path></g><g transform="translate(1800.0421351273653 935.7143966895472) rotate(0 -137.18113765795465 -112.08353464739224)"><path d="M-249.28 -210.65 C-259.39 -213.26, -267.68 -218.97, -276.05 -223.78 M-249.91 -209.47 C-255.67 -210.9, -259.39 -215.6, -274.61 -223.66" stroke="#000000" stroke-width="1" fill="none"></path></g></g><g transform="translate(1837.6706687615042 807.809389441688) rotate(0 159 12.5)"><text x="0" y="18" font-family="Virgil, Segoe UI Emoji" font-size="20px" fill="#000000" text-anchor="start" style="white-space: pre;" direction="ltr">response: object with IPFS hash</text></g><g transform="translate(1823.7819155062953 867.5317303433807) rotate(0 182.5 12.5)"><text x="0" y="18" font-family="Virgil, Segoe UI Emoji" font-size="20px" fill="#000000" text-anchor="start" style="white-space: pre;" direction="ltr">- Lookup hash to get remaining data</text></g><g stroke-linecap="round"><g transform="translate(2214.0594220167127 769.587201127886) rotate(0 -571.5901194609513 -361.8375559465241)"><path d="M-0.56 -0.15 C21.93 -12.93, 129.13 8.84, 134.45 -75.91 C139.77 -160.67, 217.75 -402.93, 31.37 -508.68 C-155.02 -614.43, -762.27 -677.87, -983.85 -710.41 C-1205.44 -742.95, -1245.57 -704.79, -1298.16 -703.93 M1.34 -1.28 C23.82 -14.48, 128.68 7.13, 134.09 -77.79 C139.5 -162.7, 220.61 -405.48, 33.81 -510.77 C-152.98 -616.06, -764.46 -677.42, -986.67 -709.52 C-1208.87 -741.63, -1247.43 -704.47, -1299.39 -703.41" stroke="#000000" stroke-width="1" fill="none"></path></g><g transform="translate(2214.0594220167127 769.587201127886) rotate(0 -571.5901194609513 -361.8375559465241)"><path d="M-1273.46 -716.18 C-1279.03 -715.84, -1285.72 -708.76, -1300.08 -702.66 M-1273.03 -718.76 C-1282.57 -713.48, -1290.62 -708.6, -1298.61 -702.81" stroke="#000000" stroke-width="1" fill="none"></path></g><g transform="translate(2214.0594220167127 769.587201127886) rotate(0 -571.5901194609513 -361.8375559465241)"><path d="M-1270.18 -695.93 C-1276.72 -700.79, -1284.25 -698.9, -1300.08 -702.66 M-1269.75 -698.51 C-1280.2 -699.74, -1289.3 -701.34, -1298.61 -702.81" stroke="#000000" stroke-width="1" fill="none"></path></g></g><g stroke-linecap="round"><g transform="translate(919.6150453891083 65.42055989253453) rotate(0 752.7603964334331 353.40062731281944)"><path d="M1.02 -0.66 C45.28 -9.07, 70.23 -67.24, 265.17 -51.36 C460.1 -35.47, 975.09 44.59, 1170.64 94.63 C1366.19 144.67, 1384.8 149.92, 1438.49 248.89 C1492.18 347.86, 1524.75 602.91, 1492.8 688.46 C1460.85 774.02, 1287.8 749.98, 1246.79 762.22 M0.09 1.6 C44.76 -7.03, 72.34 -68.55, 267.38 -52.88 C462.42 -37.21, 975.09 45.11, 1170.35 95.61 C1365.62 146.11, 1385.37 151.79, 1438.96 250.14 C1492.56 348.49, 1524.25 600.55, 1491.93 685.7 C1459.61 770.85, 1286.33 748, 1245.05 761.04" stroke="#000000" stroke-width="1" fill="none"></path></g><g transform="translate(919.6150453891083 65.42055989253453) rotate(0 752.7603964334331 353.40062731281944)"><path d="M1271.09 746.7 C1266.8 753.42, 1256.61 756, 1245.51 762.93 M1272.98 747.77 C1261.56 753.97, 1250.67 758.11, 1244.24 760.62" stroke="#000000" stroke-width="1" fill="none"></path></g><g transform="translate(919.6150453891083 65.42055989253453) rotate(0 752.7603964334331 353.40062731281944)"><path d="M1272.94 767.14 C1268.32 768.45, 1257.64 765.61, 1245.51 762.93 M1274.83 768.21 C1262.55 766.63, 1250.95 762.99, 1244.24 760.62" stroke="#000000" stroke-width="1" fill="none"></path></g></g><g stroke-linecap="round"><g transform="translate(2264.0594220167127 541.8094403043183) rotate(0 -904.9166925144314 532.9612288992598)"><path d="M0.42 -1.13 C57.36 47.88, 305.61 122.31, 340.58 293.56 C375.54 464.81, 618.78 924.33, 210.23 1026.37 C-198.32 1128.4, -1741.66 1016.13, -2110.71 905.78 C-2479.76 795.43, -2021.8 454.61, -2004.06 364.29 M-0.82 0.89 C56.13 49.6, 305.08 120.72, 340.08 291.85 C375.07 462.98, 617.51 925.74, 209.15 1027.67 C-199.22 1129.61, -1741.56 1014, -2110.1 903.49 C-2478.65 792.98, -2019.92 454.15, -2002.11 364.61" stroke="#000000" stroke-width="1" fill="none"></path></g><g transform="translate(2264.0594220167127 541.8094403043183) rotate(0 -904.9166925144314 532.9612288992598)"><path d="M-2012.64 394.76 C-2007.49 386.17, -2006.99 382.18, -2001.27 363.86 M-2011.57 394.03 C-2008.59 384.44, -2005.62 375.88, -2001.84 364.26" stroke="#000000" stroke-width="1" fill="none"></path></g><g transform="translate(2264.0594220167127 541.8094403043183) rotate(0 -904.9166925144314 532.9612288992598)"><path d="M-2029.08 382.48 C-2020.47 376.45, -2016.46 375.08, -2001.27 363.86 M-2028.01 381.75 C-2020.37 375.77, -2012.68 370.74, -2001.84 364.26" stroke="#000000" stroke-width="1" fill="none"></path></g></g><g stroke-linecap="round"><g transform="translate(286.0039410596811 925.698305457313) rotate(0 1089.465087805699 150.22156945545976)"><path d="M-0.82 0.24 C-6.75 82.77, -399.22 398.35, -36.16 495.72 C326.9 593.1, 1800.03 690.8, 2177.51 584.47 C2554.99 478.14, 2263.38 10.44, 2228.74 -142.26 C2194.11 -294.97, 2012.88 -300.33, 1969.71 -331.74 M0.94 -0.68 C-5.04 81.97, -399.57 399.31, -36.84 497.06 C325.89 594.81, 1799.61 692.69, 2177.33 585.8 C2555.06 478.91, 2263.83 8.68, 2229.49 -144.26 C2195.16 -297.2, 2014.46 -300.58, 1971.31 -331.83" stroke="#000000" stroke-width="1" fill="none"></path></g><g transform="translate(286.0039410596811 925.698305457313) rotate(0 1089.465087805699 150.22156945545976)"><path d="M2001.71 -330.78 C1993.18 -330.01, 1986.37 -330.33, 1973.09 -333.71 M2001.13 -332.49 C1993.67 -331.87, 1988.6 -332.1, 1971.32 -332.58" stroke="#000000" stroke-width="1" fill="none"></path></g><g transform="translate(286.0039410596811 925.698305457313) rotate(0 1089.465087805699 150.22156945545976)"><path d="M1994.56 -311.55 C1987.72 -315.53, 1982.7 -320.64, 1973.09 -333.71 M1993.98 -313.26 C1988.3 -316.95, 1984.84 -321.49, 1971.32 -332.58" stroke="#000000" stroke-width="1" fill="none"></path></g></g><g stroke-linecap="round"><g transform="translate(2197.3929588005662 884.6013076829813) rotate(0 -837.7203519223342 256.4835643134504)"><path d="M-1.18 -0.37 C33.9 7.8, 207.6 -27.46, 211.29 49.69 C214.98 126.84, 345.43 393.31, 20.95 462.51 C-303.54 531.71, -1419.84 531.7, -1735.64 464.91 C-2051.44 398.11, -1850.89 128.89, -1873.85 61.74 M0.4 -1.6 C35.28 6.66, 207.13 -26.14, 210.43 50.93 C213.74 127.99, 344.58 391.62, 20.24 460.77 C-304.1 529.92, -1420.2 532.31, -1735.59 465.83 C-2050.98 399.34, -1849.31 129.38, -1872.08 61.88" stroke="#000000" stroke-width="1" fill="none"></path></g><g transform="translate(2197.3929588005662 884.6013076829813) rotate(0 -837.7203519223342 256.4835643134504)"><path d="M-1867.94 91.8 C-1870.19 80.86, -1869.07 69.27, -1872.68 60.55 M-1866.89 91.56 C-1869.35 83.69, -1869.96 76.11, -1872.41 61.36" stroke="#000000" stroke-width="1" fill="none"></path></g><g transform="translate(2197.3929588005662 884.6013076829813) rotate(0 -837.7203519223342 256.4835643134504)"><path d="M-1888.09 87.92 C-1882.98 78.59, -1874.52 68.42, -1872.68 60.55 M-1887.04 87.69 C-1884.26 80.87, -1879.61 74.29, -1872.41 61.36" stroke="#000000" stroke-width="1" fill="none"></path></g></g><g stroke-linecap="round"><g transform="translate(371.0040020948377 945.9760561083548) rotate(0 1008.9748380589781 186.4605627369907)"><path d="M1.02 0.71 C24.6 60.01, -97.99 287.11, 142.16 354.69 C382.31 422.27, 1135.81 424.76, 1441.91 406.17 C1748.02 387.58, 1888.03 307.09, 1978.79 243.14 C2069.56 179.19, 2012.84 70.18, 1986.5 22.46 C1960.17 -25.26, 1848.36 -32.36, 1820.78 -43.19 M0.1 0.04 C23.55 59.61, -98.95 288.66, 141.76 356.06 C382.47 423.46, 1138.22 423.1, 1444.35 404.44 C1750.48 385.79, 1887.92 307.72, 1978.55 244.14 C2069.19 180.56, 2014.27 70.47, 1988.17 22.97 C1962.07 -24.53, 1849.71 -29.74, 1821.94 -40.87" stroke="#000000" stroke-width="1" fill="none"></path></g><g transform="translate(371.0040020948377 945.9760561083548) rotate(0 1008.9748380589781 186.4605627369907)"><path d="M1852.88 -42.95 C1840.47 -44.52, 1832.27 -43.25, 1821.61 -42.53 M1851.49 -44.62 C1842.75 -43.35, 1831.72 -42.58, 1821.32 -41.87" stroke="#000000" stroke-width="1" fill="none"></path></g><g transform="translate(371.0040020948377 945.9760561083548) rotate(0 1008.9748380589781 186.4605627369907)"><path d="M1848.38 -22.93 C1837.77 -31.71, 1831.18 -37.63, 1821.61 -42.53 M1846.99 -24.6 C1839.77 -29.71, 1830.17 -35.34, 1821.32 -41.87" stroke="#000000" stroke-width="1" fill="none"></path></g></g><g transform="translate(1831.4485821729627 932.6427736376517) rotate(0 139 25)"><text x="0" y="18" font-family="Virgil, Segoe UI Emoji" font-size="20px" fill="#000000" text-anchor="start" style="white-space: pre;" direction="ltr">- Send the item datas and </text><text x="0" y="43" font-family="Virgil, Segoe UI Emoji" font-size="20px" fill="#000000" text-anchor="start" style="white-space: pre;" direction="ltr">image URL to the client</text></g><g stroke-linecap="round"><g transform="translate(677.9485821729628 151.53162861812064) rotate(0 -140.45030967767252 71.78817400101902)"><path d="M1.09 0.81 C-38.75 2.45, -192.15 -13.64, -239.26 10.83 C-286.38 35.31, -274.44 125.1, -281.62 147.65 M0.21 0.18 C-39.69 1.43, -192.65 -14.95, -239.68 9.29 C-286.71 33.54, -274.93 122.73, -281.99 145.64" stroke="#000000" stroke-width="1" fill="none"></path></g><g transform="translate(677.9485821729628 151.53162861812064) rotate(0 -140.45030967767252 71.78817400101902)"><path d="M-288.16 118.29 C-285.29 126.01, -283.97 133.05, -283.46 146.4 M-290.12 115.66 C-289.06 123.34, -287.19 129.34, -281.28 146.11" stroke="#000000" stroke-width="1" fill="none"></path></g><g transform="translate(677.9485821729628 151.53162861812064) rotate(0 -140.45030967767252 71.78817400101902)"><path d="M-267.74 120.25 C-270.67 127.6, -275.13 134.09, -283.46 146.4 M-269.69 117.63 C-272.76 124.71, -275.03 130.31, -281.28 146.11" stroke="#000000" stroke-width="1" fill="none"></path></g></g><g stroke-linecap="round"><g transform="translate(450.547986115462 347.7028497354704) rotate(0 128.24191781059181 -79.93375744756231)"><path d="M-0.96 0.88 C41.52 -25.94, 212.24 -133.69, 255.32 -160.75 M0.74 0.3 C43.53 -26.34, 214.69 -132.43, 257.44 -159.26" stroke="#000000" stroke-width="1" fill="none"></path></g><g transform="translate(450.547986115462 347.7028497354704) rotate(0 128.24191781059181 -79.93375744756231)"><path d="M240.41 -137.5 C245.03 -141.73, 250.03 -152.84, 257.91 -160.05 M238.79 -135.59 C242.64 -141.08, 247.7 -144.96, 257.44 -158.63" stroke="#000000" stroke-width="1" fill="none"></path></g><g transform="translate(450.547986115462 347.7028497354704) rotate(0 128.24191781059181 -79.93375744756231)"><path d="M229.56 -154.92 C237.88 -153.17, 246.55 -158.39, 257.91 -160.05 M227.94 -153 C234.22 -154.56, 241.67 -154.61, 257.44 -158.63" stroke="#000000" stroke-width="1" fill="none"></path></g></g></svg>